<svg width="414" height="386" viewBox="0 0 414 386" fill="none" xmlns="http://www.w3.org/2000/svg">
<path d="M353.563 241.293L262.601 385.205L351.127 207.913L347.431 157.252L374.044 162.018L400.658 166.784L371.789 212.458L364.064 385.205L353.563 241.293Z" fill="#0000AD"/>
<path d="M411.885 1.00001L376.589 130.033L388.74 130.726L411.885 1.00001Z" fill="#0000AD"/>
<path d="M374.044 162.018L400.658 166.784L262.601 385.205L374.044 162.018ZM374.044 162.018L347.431 157.252L364.064 385.205L374.044 162.018ZM376.589 130.033L411.885 1.00001L388.74 130.726L376.589 130.033Z" stroke="white"/>
<path d="M402.535 122.862L367.72 117.882C278.745 262.052 115.308 360.678 -73 374.79H582L468.85 333.286C428.039 254.893 410.39 209.614 402.535 122.862Z" fill="#E5E5E5"/>
<path d="M468.85 333.286C428.039 254.893 410.39 209.614 402.535 122.862L367.72 117.882C278.745 262.052 115.308 360.679 -73 374.79H582L468.85 333.286ZM468.85 333.286C326.186 350.109 246.896 346.596 105.776 333.701" stroke="white" stroke-width="5"/>
</svg>
