<svg width="657" height="386" viewBox="0 0 657 386" fill="none" xmlns="http://www.w3.org/2000/svg">
<path d="M427.563 241.293L336.601 385.205L425.127 207.913L421.431 157.252L448.044 162.018L474.658 166.784L445.789 212.458L438.064 385.205L427.563 241.293Z" fill="#0000AD"/>
<path d="M485.885 1.00001L450.589 130.033L462.74 130.726L485.885 1.00001Z" fill="#0000AD"/>
<path d="M448.044 162.018L474.658 166.784L336.601 385.205L448.044 162.018ZM448.044 162.018L421.431 157.252L438.064 385.205L448.044 162.018ZM450.589 130.033L485.885 1.00001L462.74 130.726L450.589 130.033Z" stroke="white"/>
<path d="M476.535 122.862L441.72 117.882C352.745 262.052 189.308 360.679 1 374.79H656L542.85 333.286C502.039 254.893 484.39 209.614 476.535 122.862Z" fill="#E5E5E5"/>
<path d="M542.85 333.286C502.039 254.893 484.39 209.614 476.535 122.862L441.72 117.882C352.745 262.052 189.308 360.679 1 374.79H656L542.85 333.286ZM542.85 333.286C400.186 350.109 320.896 346.596 179.776 333.701" stroke="white" stroke-width="5"/>
</svg>
