<svg width="385" height="426" viewBox="0 0 385 426" fill="none" xmlns="http://www.w3.org/2000/svg">
<rect x="-0.356577" y="0.149036" width="149" height="149" transform="matrix(-0.000903766 1 -0.712249 -0.701927 153.722 209.899)" stroke="black"/>
<rect x="-0.356577" y="0.149036" width="199" height="199" transform="matrix(-0.000903766 1 -0.712249 -0.701927 238.38 193.996)" stroke="black"/>
<rect x="-0.356577" y="0.149036" width="249" height="249" transform="matrix(-0.000903766 1 -0.712249 -0.701927 322.037 176.092)" stroke="black"/>
<path d="M9.35 144L1.45 109.1H8.95L12.25 125.85L14.1 135.55H14.25L16.45 125.85L20.3 109.1H28.6L32.5 125.85L34.65 135.55H34.8L36.65 125.85L40 109.1H47.2L39.1 144H30.45L26.05 125.1L24.35 117.45H24.2L22.45 125.1L18.05 144H9.35ZM61.7633 144.6C59.7633 144.6 57.9799 144.283 56.4133 143.65C54.8466 142.983 53.5133 142.067 52.4133 140.9C51.3466 139.7 50.5299 138.25 49.9633 136.55C49.4299 134.85 49.1633 132.95 49.1633 130.85C49.1633 128.783 49.4299 126.917 49.9633 125.25C50.4966 123.55 51.2799 122.1 52.3133 120.9C53.3799 119.7 54.6799 118.783 56.2133 118.15C57.7466 117.483 59.4966 117.15 61.4633 117.15C63.6299 117.15 65.4799 117.517 67.0133 118.25C68.5799 118.983 69.8466 119.967 70.8133 121.2C71.8133 122.433 72.5299 123.867 72.9633 125.5C73.4299 127.1 73.6633 128.783 73.6633 130.55V132.75H56.8133V133.15C56.8133 134.883 57.2799 136.267 58.2133 137.3C59.1466 138.3 60.6133 138.8 62.6133 138.8C64.1466 138.8 65.3966 138.5 66.3633 137.9C67.3299 137.267 68.2299 136.517 69.0633 135.65L72.7633 140.25C71.5966 141.617 70.0633 142.683 68.1633 143.45C66.2966 144.217 64.1633 144.6 61.7633 144.6ZM61.6133 122.6C60.1133 122.6 58.9299 123.1 58.0633 124.1C57.2299 125.067 56.8133 126.367 56.8133 128V128.4H66.0133V127.95C66.0133 126.35 65.6466 125.067 64.9133 124.1C64.2133 123.1 63.1133 122.6 61.6133 122.6ZM110.106 144C108.773 144 107.656 143.583 106.756 142.75C105.889 141.917 105.339 140.8 105.106 139.4H104.806C104.406 141.1 103.523 142.4 102.156 143.3C100.789 144.167 99.1059 144.6 97.1059 144.6C94.4725 144.6 92.4559 143.9 91.0559 142.5C89.6559 141.1 88.9559 139.25 88.9559 136.95C88.9559 134.183 89.9559 132.133 91.9559 130.8C93.9892 129.433 96.7392 128.75 100.206 128.75H104.356V127.1C104.356 125.833 104.023 124.833 103.356 124.1C102.689 123.333 101.573 122.95 100.006 122.95C98.5392 122.95 97.3725 123.267 96.5059 123.9C95.6392 124.533 94.9225 125.25 94.3559 126.05L89.9559 122.15C91.0225 120.583 92.3559 119.367 93.9559 118.5C95.5892 117.6 97.7892 117.15 100.556 117.15C104.289 117.15 107.089 117.967 108.956 119.6C110.823 121.233 111.756 123.617 111.756 126.75V138.25H114.206V144H110.106ZM99.8559 139.45C101.089 139.45 102.139 139.183 103.006 138.65C103.906 138.117 104.356 137.25 104.356 136.05V132.95H100.756C97.8559 132.95 96.4059 133.933 96.4059 135.9V136.65C96.4059 137.617 96.7059 138.333 97.3059 138.8C97.9059 139.233 98.7559 139.45 99.8559 139.45ZM119.173 144V117.75H126.573V123.45H126.823C126.956 122.717 127.189 122.017 127.523 121.35C127.856 120.65 128.289 120.033 128.823 119.5C129.389 118.967 130.056 118.55 130.823 118.25C131.589 117.917 132.489 117.75 133.523 117.75H134.823V124.65H132.973C130.806 124.65 129.189 124.933 128.123 125.5C127.089 126.067 126.573 127.117 126.573 128.65V144H119.173ZM150.093 144.6C148.093 144.6 146.31 144.283 144.743 143.65C143.177 142.983 141.843 142.067 140.743 140.9C139.677 139.7 138.86 138.25 138.293 136.55C137.76 134.85 137.493 132.95 137.493 130.85C137.493 128.783 137.76 126.917 138.293 125.25C138.827 123.55 139.61 122.1 140.643 120.9C141.71 119.7 143.01 118.783 144.543 118.15C146.077 117.483 147.827 117.15 149.793 117.15C151.96 117.15 153.81 117.517 155.343 118.25C156.91 118.983 158.177 119.967 159.143 121.2C160.143 122.433 160.86 123.867 161.293 125.5C161.76 127.1 161.993 128.783 161.993 130.55V132.75H145.143V133.15C145.143 134.883 145.61 136.267 146.543 137.3C147.477 138.3 148.943 138.8 150.943 138.8C152.477 138.8 153.727 138.5 154.693 137.9C155.66 137.267 156.56 136.517 157.393 135.65L161.093 140.25C159.927 141.617 158.393 142.683 156.493 143.45C154.627 144.217 152.493 144.6 150.093 144.6ZM149.943 122.6C148.443 122.6 147.26 123.1 146.393 124.1C145.56 125.067 145.143 126.367 145.143 128V128.4H154.343V127.95C154.343 126.35 153.977 125.067 153.243 124.1C152.543 123.1 151.443 122.6 149.943 122.6ZM198.436 144C197.103 144 195.986 143.583 195.086 142.75C194.219 141.917 193.669 140.8 193.436 139.4H193.136C192.736 141.1 191.853 142.4 190.486 143.3C189.119 144.167 187.436 144.6 185.436 144.6C182.803 144.6 180.786 143.9 179.386 142.5C177.986 141.1 177.286 139.25 177.286 136.95C177.286 134.183 178.286 132.133 180.286 130.8C182.319 129.433 185.069 128.75 188.536 128.75H192.686V127.1C192.686 125.833 192.353 124.833 191.686 124.1C191.019 123.333 189.903 122.95 188.336 122.95C186.869 122.95 185.703 123.267 184.836 123.9C183.969 124.533 183.253 125.25 182.686 126.05L178.286 122.15C179.353 120.583 180.686 119.367 182.286 118.5C183.919 117.6 186.119 117.15 188.886 117.15C192.619 117.15 195.419 117.967 197.286 119.6C199.153 121.233 200.086 123.617 200.086 126.75V138.25H202.536V144H198.436ZM188.186 139.45C189.419 139.45 190.469 139.183 191.336 138.65C192.236 138.117 192.686 137.25 192.686 136.05V132.95H189.086C186.186 132.95 184.736 133.933 184.736 135.9V136.65C184.736 137.617 185.036 138.333 185.636 138.8C186.236 139.233 187.086 139.45 188.186 139.45ZM7.15 224.95C5.65 224.95 4.55 224.617 3.85 223.95C3.18333 223.25 2.85 222.367 2.85 221.3V220.2C2.85 219.133 3.18333 218.267 3.85 217.6C4.55 216.9 5.65 216.55 7.15 216.55C8.65 216.55 9.73333 216.9 10.4 217.6C11.1 218.267 11.45 219.133 11.45 220.2V221.3C11.45 222.367 11.1 223.25 10.4 223.95C9.73333 224.617 8.65 224.95 7.15 224.95ZM3.45 227.75H10.85V254H3.45V227.75ZM17.7566 254V227.75H25.1566V232.2H25.4566C25.9233 230.833 26.74 229.65 27.9066 228.65C29.0733 227.65 30.69 227.15 32.7566 227.15C35.4566 227.15 37.49 228.05 38.8566 229.85C40.2566 231.65 40.9566 234.217 40.9566 237.55V254H33.5566V238.15C33.5566 236.45 33.29 235.2 32.7566 234.4C32.2233 233.567 31.2733 233.15 29.9066 233.15C29.3066 233.15 28.7233 233.233 28.1566 233.4C27.59 233.533 27.0733 233.767 26.6066 234.1C26.1733 234.433 25.8233 234.85 25.5566 235.35C25.29 235.817 25.1566 236.367 25.1566 237V254H17.7566ZM59.3582 254V227.75H66.7582V232.2H67.0582C67.5249 230.8 68.3249 229.617 69.4582 228.65C70.5915 227.65 72.1415 227.15 74.1082 227.15C75.9082 227.15 77.4415 227.6 78.7082 228.5C79.9749 229.4 80.8915 230.717 81.4582 232.45H81.6082C81.8415 231.717 82.1915 231.033 82.6582 230.4C83.1582 229.733 83.7582 229.167 84.4582 228.7C85.1582 228.233 85.9415 227.867 86.8082 227.6C87.6749 227.3 88.6082 227.15 89.6082 227.15C92.1415 227.15 94.0749 228.05 95.4082 229.85C96.7749 231.65 97.4582 234.217 97.4582 237.55V254H90.0582V238.15C90.0582 234.817 88.8582 233.15 86.4582 233.15C85.3582 233.15 84.3582 233.467 83.4582 234.1C82.5582 234.733 82.1082 235.7 82.1082 237V254H74.7082V238.15C74.7082 234.817 73.5082 233.15 71.1082 233.15C70.5749 233.15 70.0415 233.233 69.5082 233.4C69.0082 233.533 68.5415 233.767 68.1082 234.1C67.7082 234.433 67.3749 234.85 67.1082 235.35C66.8749 235.817 66.7582 236.367 66.7582 237V254H59.3582ZM114.986 254.6C112.986 254.6 111.203 254.283 109.636 253.65C108.069 252.983 106.736 252.067 105.636 250.9C104.569 249.7 103.753 248.25 103.186 246.55C102.653 244.85 102.386 242.95 102.386 240.85C102.386 238.783 102.653 236.917 103.186 235.25C103.719 233.55 104.503 232.1 105.536 230.9C106.603 229.7 107.903 228.783 109.436 228.15C110.969 227.483 112.719 227.15 114.686 227.15C116.853 227.15 118.703 227.517 120.236 228.25C121.803 228.983 123.069 229.967 124.036 231.2C125.036 232.433 125.753 233.867 126.186 235.5C126.653 237.1 126.886 238.783 126.886 240.55V242.75H110.036V243.15C110.036 244.883 110.503 246.267 111.436 247.3C112.369 248.3 113.836 248.8 115.836 248.8C117.369 248.8 118.619 248.5 119.586 247.9C120.553 247.267 121.453 246.517 122.286 245.65L125.986 250.25C124.819 251.617 123.286 252.683 121.386 253.45C119.519 254.217 117.386 254.6 114.986 254.6ZM114.836 232.6C113.336 232.6 112.153 233.1 111.286 234.1C110.453 235.067 110.036 236.367 110.036 238V238.4H119.236V237.95C119.236 236.35 118.869 235.067 118.136 234.1C117.436 233.1 116.336 232.6 114.836 232.6ZM132.112 227.75H139.512V232.15H139.762C140.129 230.683 140.962 229.483 142.262 228.55C143.595 227.617 145.112 227.15 146.812 227.15C150.145 227.15 152.662 228.317 154.362 230.65C156.062 232.983 156.912 236.383 156.912 240.85C156.912 245.317 156.062 248.733 154.362 251.1C152.662 253.433 150.145 254.6 146.812 254.6C145.945 254.6 145.129 254.467 144.362 254.2C143.595 253.967 142.895 253.633 142.262 253.2C141.662 252.733 141.145 252.2 140.712 251.6C140.279 250.967 139.962 250.3 139.762 249.6H139.512V264H132.112V227.75ZM144.362 248.6C145.762 248.6 146.912 248.117 147.812 247.15C148.745 246.15 149.212 244.817 149.212 243.15V238.6C149.212 236.933 148.745 235.617 147.812 234.65C146.912 233.65 145.762 233.15 144.362 233.15C142.962 233.15 141.795 233.5 140.862 234.2C139.962 234.867 139.512 235.8 139.512 237V244.75C139.512 245.95 139.962 246.9 140.862 247.6C141.795 248.267 142.962 248.6 144.362 248.6ZM14.4 309.6C12.4 309.6 10.6167 309.283 9.05 308.65C7.48333 307.983 6.15 307.067 5.05 305.9C3.98333 304.7 3.16667 303.25 2.6 301.55C2.06667 299.85 1.8 297.95 1.8 295.85C1.8 293.783 2.06667 291.917 2.6 290.25C3.13333 288.55 3.91667 287.1 4.95 285.9C6.01667 284.7 7.31667 283.783 8.85 283.15C10.3833 282.483 12.1333 282.15 14.1 282.15C16.2667 282.15 18.1167 282.517 19.65 283.25C21.2167 283.983 22.4833 284.967 23.45 286.2C24.45 287.433 25.1667 288.867 25.6 290.5C26.0667 292.1 26.3 293.783 26.3 295.55V297.75H9.45V298.15C9.45 299.883 9.91667 301.267 10.85 302.3C11.7833 303.3 13.25 303.8 15.25 303.8C16.7833 303.8 18.0333 303.5 19 302.9C19.9667 302.267 20.8667 301.517 21.7 300.65L25.4 305.25C24.2333 306.617 22.7 307.683 20.8 308.45C18.9333 309.217 16.8 309.6 14.4 309.6ZM14.25 287.6C12.75 287.6 11.5667 288.1 10.7 289.1C9.86667 290.067 9.45 291.367 9.45 293V293.4H18.65V292.95C18.65 291.35 18.2833 290.067 17.55 289.1C16.85 288.1 15.75 287.6 14.25 287.6ZM31.5262 309V282.75H38.9262V287.2H39.2262C39.6928 285.833 40.5095 284.65 41.6762 283.65C42.8428 282.65 44.4595 282.15 46.5262 282.15C49.2262 282.15 51.2595 283.05 52.6262 284.85C54.0262 286.65 54.7262 289.217 54.7262 292.55V309H47.3262V293.15C47.3262 291.45 47.0595 290.2 46.5262 289.4C45.9928 288.567 45.0428 288.15 43.6762 288.15C43.0762 288.15 42.4928 288.233 41.9262 288.4C41.3595 288.533 40.8428 288.767 40.3762 289.1C39.9428 289.433 39.5928 289.85 39.3262 290.35C39.0595 290.817 38.9262 291.367 38.9262 292V309H31.5262ZM85.6113 310.9C85.6113 312.3 85.3613 313.533 84.8613 314.6C84.3947 315.667 83.6113 316.567 82.5113 317.3C81.4113 318.067 79.9447 318.633 78.1113 319C76.3113 319.4 74.078 319.6 71.4113 319.6C69.1447 319.6 67.2113 319.45 65.6113 319.15C64.0447 318.883 62.7613 318.483 61.7613 317.95C60.7947 317.45 60.078 316.817 59.6113 316.05C59.178 315.317 58.9613 314.467 58.9613 313.5C58.9613 312.033 59.3947 310.883 60.2613 310.05C61.128 309.217 62.328 308.7 63.8613 308.5V307.95C62.5947 307.717 61.6447 307.183 61.0113 306.35C60.378 305.483 60.0613 304.483 60.0613 303.35C60.0613 302.65 60.1947 302.05 60.4613 301.55C60.7613 301.017 61.128 300.567 61.5613 300.2C62.028 299.8 62.5613 299.483 63.1613 299.25C63.7613 299.017 64.3613 298.833 64.9613 298.7V298.5C63.3613 297.767 62.178 296.767 61.4113 295.5C60.6447 294.2 60.2613 292.7 60.2613 291C60.2613 288.333 61.178 286.2 63.0113 284.6C64.878 282.967 67.7113 282.15 71.5113 282.15C73.2447 282.15 74.728 282.317 75.9613 282.65V281.65C75.9613 280.25 76.2947 279.25 76.9613 278.65C77.6613 278.017 78.6447 277.7 79.9113 277.7H84.0613V283.2H78.2613V283.5C79.7947 284.233 80.928 285.25 81.6613 286.55C82.3947 287.817 82.7613 289.3 82.7613 291C82.7613 293.633 81.828 295.75 79.9613 297.35C78.128 298.917 75.3113 299.7 71.5113 299.7C69.8113 299.7 68.2613 299.517 66.8613 299.15C66.0947 299.65 65.7113 300.35 65.7113 301.25C65.7113 301.883 65.9447 302.383 66.4113 302.75C66.9113 303.083 67.728 303.25 68.8613 303.25H76.4613C79.6613 303.25 81.978 303.917 83.4113 305.25C84.878 306.583 85.6113 308.467 85.6113 310.9ZM78.6613 311.9C78.6613 311.133 78.3613 310.55 77.7613 310.15C77.1613 309.75 76.1113 309.55 74.6113 309.55H65.6113C65.278 309.883 65.028 310.25 64.8613 310.65C64.728 311.083 64.6613 311.5 64.6613 311.9C64.6613 312.867 65.078 313.567 65.9113 314C66.7447 314.467 68.1613 314.7 70.1613 314.7H73.1613C75.1613 314.7 76.578 314.467 77.4113 314C78.2447 313.567 78.6613 312.867 78.6613 311.9ZM71.5113 294.85C72.978 294.85 74.0613 294.55 74.7613 293.95C75.4947 293.317 75.8613 292.417 75.8613 291.25V290.65C75.8613 289.483 75.4947 288.6 74.7613 288C74.0613 287.367 72.978 287.05 71.5113 287.05C70.0447 287.05 68.9447 287.367 68.2113 288C67.5113 288.6 67.1613 289.483 67.1613 290.65V291.25C67.1613 292.417 67.5113 293.317 68.2113 293.95C68.9447 294.55 70.0447 294.85 71.5113 294.85ZM92.5992 279.95C91.0992 279.95 89.9992 279.617 89.2992 278.95C88.6326 278.25 88.2992 277.367 88.2992 276.3V275.2C88.2992 274.133 88.6326 273.267 89.2992 272.6C89.9992 271.9 91.0992 271.55 92.5992 271.55C94.0992 271.55 95.1826 271.9 95.8492 272.6C96.5492 273.267 96.8992 274.133 96.8992 275.2V276.3C96.8992 277.367 96.5492 278.25 95.8492 278.95C95.1826 279.617 94.0992 279.95 92.5992 279.95ZM88.8992 282.75H96.2992V309H88.8992V282.75ZM103.206 309V282.75H110.606V287.2H110.906C111.373 285.833 112.189 284.65 113.356 283.65C114.523 282.65 116.139 282.15 118.206 282.15C120.906 282.15 122.939 283.05 124.306 284.85C125.706 286.65 126.406 289.217 126.406 292.55V309H119.006V293.15C119.006 291.45 118.739 290.2 118.206 289.4C117.673 288.567 116.723 288.15 115.356 288.15C114.756 288.15 114.173 288.233 113.606 288.4C113.039 288.533 112.523 288.767 112.056 289.1C111.623 289.433 111.273 289.85 111.006 290.35C110.739 290.817 110.606 291.367 110.606 292V309H103.206ZM143.941 309.6C141.941 309.6 140.158 309.283 138.591 308.65C137.024 307.983 135.691 307.067 134.591 305.9C133.524 304.7 132.708 303.25 132.141 301.55C131.608 299.85 131.341 297.95 131.341 295.85C131.341 293.783 131.608 291.917 132.141 290.25C132.674 288.55 133.458 287.1 134.491 285.9C135.558 284.7 136.858 283.783 138.391 283.15C139.924 282.483 141.674 282.15 143.641 282.15C145.808 282.15 147.658 282.517 149.191 283.25C150.758 283.983 152.024 284.967 152.991 286.2C153.991 287.433 154.708 288.867 155.141 290.5C155.608 292.1 155.841 293.783 155.841 295.55V297.75H138.991V298.15C138.991 299.883 139.458 301.267 140.391 302.3C141.324 303.3 142.791 303.8 144.791 303.8C146.324 303.8 147.574 303.5 148.541 302.9C149.508 302.267 150.408 301.517 151.241 300.65L154.941 305.25C153.774 306.617 152.241 307.683 150.341 308.45C148.474 309.217 146.341 309.6 143.941 309.6ZM143.791 287.6C142.291 287.6 141.108 288.1 140.241 289.1C139.408 290.067 138.991 291.367 138.991 293V293.4H148.191V292.95C148.191 291.35 147.824 290.067 147.091 289.1C146.391 288.1 145.291 287.6 143.791 287.6ZM172.017 309.6C170.017 309.6 168.234 309.283 166.667 308.65C165.101 307.983 163.767 307.067 162.667 305.9C161.601 304.7 160.784 303.25 160.217 301.55C159.684 299.85 159.417 297.95 159.417 295.85C159.417 293.783 159.684 291.917 160.217 290.25C160.751 288.55 161.534 287.1 162.567 285.9C163.634 284.7 164.934 283.783 166.467 283.15C168.001 282.483 169.751 282.15 171.717 282.15C173.884 282.15 175.734 282.517 177.267 283.25C178.834 283.983 180.101 284.967 181.067 286.2C182.067 287.433 182.784 288.867 183.217 290.5C183.684 292.1 183.917 293.783 183.917 295.55V297.75H167.067V298.15C167.067 299.883 167.534 301.267 168.467 302.3C169.401 303.3 170.867 303.8 172.867 303.8C174.401 303.8 175.651 303.5 176.617 302.9C177.584 302.267 178.484 301.517 179.317 300.65L183.017 305.25C181.851 306.617 180.317 307.683 178.417 308.45C176.551 309.217 174.417 309.6 172.017 309.6ZM171.867 287.6C170.367 287.6 169.184 288.1 168.317 289.1C167.484 290.067 167.067 291.367 167.067 293V293.4H176.267V292.95C176.267 291.35 175.901 290.067 175.167 289.1C174.467 288.1 173.367 287.6 171.867 287.6ZM189.143 309V282.75H196.543V288.45H196.793C196.927 287.717 197.16 287.017 197.493 286.35C197.827 285.65 198.26 285.033 198.793 284.5C199.36 283.967 200.027 283.55 200.793 283.25C201.56 282.917 202.46 282.75 203.493 282.75H204.793V289.65H202.943C200.777 289.65 199.16 289.933 198.093 290.5C197.06 291.067 196.543 292.117 196.543 293.65V309H189.143ZM213.058 279.95C211.558 279.95 210.458 279.617 209.758 278.95C209.092 278.25 208.758 277.367 208.758 276.3V275.2C208.758 274.133 209.092 273.267 209.758 272.6C210.458 271.9 211.558 271.55 213.058 271.55C214.558 271.55 215.642 271.9 216.308 272.6C217.008 273.267 217.358 274.133 217.358 275.2V276.3C217.358 277.367 217.008 278.25 216.308 278.95C215.642 279.617 214.558 279.95 213.058 279.95ZM209.358 282.75H216.758V309H209.358V282.75ZM223.665 309V282.75H231.065V287.2H231.365C231.832 285.833 232.648 284.65 233.815 283.65C234.982 282.65 236.598 282.15 238.665 282.15C241.365 282.15 243.398 283.05 244.765 284.85C246.165 286.65 246.865 289.217 246.865 292.55V309H239.465V293.15C239.465 291.45 239.198 290.2 238.665 289.4C238.132 288.567 237.182 288.15 235.815 288.15C235.215 288.15 234.632 288.233 234.065 288.4C233.498 288.533 232.982 288.767 232.515 289.1C232.082 289.433 231.732 289.85 231.465 290.35C231.198 290.817 231.065 291.367 231.065 292V309H223.665ZM277.75 310.9C277.75 312.3 277.5 313.533 277 314.6C276.533 315.667 275.75 316.567 274.65 317.3C273.55 318.067 272.083 318.633 270.25 319C268.45 319.4 266.217 319.6 263.55 319.6C261.283 319.6 259.35 319.45 257.75 319.15C256.183 318.883 254.9 318.483 253.9 317.95C252.933 317.45 252.217 316.817 251.75 316.05C251.317 315.317 251.1 314.467 251.1 313.5C251.1 312.033 251.533 310.883 252.4 310.05C253.267 309.217 254.467 308.7 256 308.5V307.95C254.733 307.717 253.783 307.183 253.15 306.35C252.517 305.483 252.2 304.483 252.2 303.35C252.2 302.65 252.333 302.05 252.6 301.55C252.9 301.017 253.267 300.567 253.7 300.2C254.167 299.8 254.7 299.483 255.3 299.25C255.9 299.017 256.5 298.833 257.1 298.7V298.5C255.5 297.767 254.317 296.767 253.55 295.5C252.783 294.2 252.4 292.7 252.4 291C252.4 288.333 253.317 286.2 255.15 284.6C257.017 282.967 259.85 282.15 263.65 282.15C265.383 282.15 266.867 282.317 268.1 282.65V281.65C268.1 280.25 268.433 279.25 269.1 278.65C269.8 278.017 270.783 277.7 272.05 277.7H276.2V283.2H270.4V283.5C271.933 284.233 273.067 285.25 273.8 286.55C274.533 287.817 274.9 289.3 274.9 291C274.9 293.633 273.967 295.75 272.1 297.35C270.267 298.917 267.45 299.7 263.65 299.7C261.95 299.7 260.4 299.517 259 299.15C258.233 299.65 257.85 300.35 257.85 301.25C257.85 301.883 258.083 302.383 258.55 302.75C259.05 303.083 259.867 303.25 261 303.25H268.6C271.8 303.25 274.117 303.917 275.55 305.25C277.017 306.583 277.75 308.467 277.75 310.9ZM270.8 311.9C270.8 311.133 270.5 310.55 269.9 310.15C269.3 309.75 268.25 309.55 266.75 309.55H257.75C257.417 309.883 257.167 310.25 257 310.65C256.867 311.083 256.8 311.5 256.8 311.9C256.8 312.867 257.217 313.567 258.05 314C258.883 314.467 260.3 314.7 262.3 314.7H265.3C267.3 314.7 268.717 314.467 269.55 314C270.383 313.567 270.8 312.867 270.8 311.9ZM263.65 294.85C265.117 294.85 266.2 294.55 266.9 293.95C267.633 293.317 268 292.417 268 291.25V290.65C268 289.483 267.633 288.6 266.9 288C266.2 287.367 265.117 287.05 263.65 287.05C262.183 287.05 261.083 287.367 260.35 288C259.65 288.6 259.3 289.483 259.3 290.65V291.25C259.3 292.417 259.65 293.317 260.35 293.95C261.083 294.55 262.183 294.85 263.65 294.85ZM285.631 309.55C284.131 309.55 283.014 309.183 282.281 308.45C281.581 307.683 281.231 306.717 281.231 305.55V304.55C281.231 303.383 281.581 302.433 282.281 301.7C283.014 300.933 284.131 300.55 285.631 300.55C287.131 300.55 288.231 300.933 288.931 301.7C289.664 302.433 290.031 303.383 290.031 304.55V305.55C290.031 306.717 289.664 307.683 288.931 308.45C288.231 309.183 287.131 309.55 285.631 309.55Z" fill="black"/>
<path d="M18.4 170.85V199H10.8V170.85H1.35V164.1H27.85V170.85H18.4ZM40.3277 199.6C38.3277 199.6 36.5444 199.283 34.9777 198.65C33.4111 197.983 32.0777 197.067 30.9777 195.9C29.9111 194.7 29.0944 193.25 28.5277 191.55C27.9944 189.85 27.7277 187.95 27.7277 185.85C27.7277 183.783 27.9944 181.917 28.5277 180.25C29.0611 178.55 29.8444 177.1 30.8777 175.9C31.9444 174.7 33.2444 173.783 34.7777 173.15C36.3111 172.483 38.0611 172.15 40.0277 172.15C42.1944 172.15 44.0444 172.517 45.5777 173.25C47.1444 173.983 48.4111 174.967 49.3777 176.2C50.3777 177.433 51.0944 178.867 51.5277 180.5C51.9944 182.1 52.2277 183.783 52.2277 185.55V187.75H35.3777V188.15C35.3777 189.883 35.8444 191.267 36.7777 192.3C37.7111 193.3 39.1777 193.8 41.1777 193.8C42.7111 193.8 43.9611 193.5 44.9277 192.9C45.8944 192.267 46.7944 191.517 47.6277 190.65L51.3277 195.25C50.1611 196.617 48.6277 197.683 46.7277 198.45C44.8611 199.217 42.7277 199.6 40.3277 199.6ZM40.1777 177.6C38.6777 177.6 37.4944 178.1 36.6277 179.1C35.7944 180.067 35.3777 181.367 35.3777 183V183.4H44.5777V182.95C44.5777 181.35 44.2111 180.067 43.4777 179.1C42.7777 178.1 41.6777 177.6 40.1777 177.6ZM76.8539 199C75.5206 199 74.4039 198.583 73.5039 197.75C72.6372 196.917 72.0872 195.8 71.8539 194.4H71.5539C71.1539 196.1 70.2706 197.4 68.9039 198.3C67.5372 199.167 65.8539 199.6 63.8539 199.6C61.2206 199.6 59.2039 198.9 57.8039 197.5C56.4039 196.1 55.7039 194.25 55.7039 191.95C55.7039 189.183 56.7039 187.133 58.7039 185.8C60.7372 184.433 63.4872 183.75 66.9539 183.75H71.1039V182.1C71.1039 180.833 70.7706 179.833 70.1039 179.1C69.4372 178.333 68.3206 177.95 66.7539 177.95C65.2872 177.95 64.1206 178.267 63.2539 178.9C62.3872 179.533 61.6706 180.25 61.1039 181.05L56.7039 177.15C57.7706 175.583 59.1039 174.367 60.7039 173.5C62.3372 172.6 64.5372 172.15 67.3039 172.15C71.0372 172.15 73.8372 172.967 75.7039 174.6C77.5706 176.233 78.5039 178.617 78.5039 181.75V193.25H80.9539V199H76.8539ZM66.6039 194.45C67.8372 194.45 68.8872 194.183 69.7539 193.65C70.6539 193.117 71.1039 192.25 71.1039 191.05V187.95H67.5039C64.6039 187.95 63.1539 188.933 63.1539 190.9V191.65C63.1539 192.617 63.4539 193.333 64.0539 193.8C64.6539 194.233 65.5039 194.45 66.6039 194.45ZM85.9207 199V172.75H93.3207V177.2H93.6207C94.0874 175.8 94.8874 174.617 96.0207 173.65C97.154 172.65 98.704 172.15 100.671 172.15C102.471 172.15 104.004 172.6 105.271 173.5C106.537 174.4 107.454 175.717 108.021 177.45H108.171C108.404 176.717 108.754 176.033 109.221 175.4C109.721 174.733 110.321 174.167 111.021 173.7C111.721 173.233 112.504 172.867 113.371 172.6C114.237 172.3 115.171 172.15 116.171 172.15C118.704 172.15 120.637 173.05 121.971 174.85C123.337 176.65 124.021 179.217 124.021 182.55V199H116.621V183.15C116.621 179.817 115.421 178.15 113.021 178.15C111.921 178.15 110.921 178.467 110.021 179.1C109.121 179.733 108.671 180.7 108.671 182V199H101.271V183.15C101.271 179.817 100.071 178.15 97.6707 178.15C97.1374 178.15 96.604 178.233 96.0707 178.4C95.5707 178.533 95.104 178.767 94.6707 179.1C94.2707 179.433 93.9374 179.85 93.6707 180.35C93.4374 180.817 93.3207 181.367 93.3207 182V199H85.9207ZM153.065 199.6C151.132 199.6 149.398 199.283 147.865 198.65C146.365 198.017 145.082 197.1 144.015 195.9C142.982 194.7 142.182 193.25 141.615 191.55C141.048 189.85 140.765 187.95 140.765 185.85C140.765 183.75 141.048 181.85 141.615 180.15C142.182 178.45 142.982 177.017 144.015 175.85C145.082 174.65 146.365 173.733 147.865 173.1C149.398 172.467 151.132 172.15 153.065 172.15C154.998 172.15 156.715 172.467 158.215 173.1C159.748 173.733 161.032 174.65 162.065 175.85C163.132 177.017 163.948 178.45 164.515 180.15C165.082 181.85 165.365 183.75 165.365 185.85C165.365 187.95 165.082 189.85 164.515 191.55C163.948 193.25 163.132 194.7 162.065 195.9C161.032 197.1 159.748 198.017 158.215 198.65C156.715 199.283 154.998 199.6 153.065 199.6ZM153.065 193.75C154.532 193.75 155.665 193.3 156.465 192.4C157.265 191.5 157.665 190.217 157.665 188.55V183.2C157.665 181.533 157.265 180.25 156.465 179.35C155.665 178.45 154.532 178 153.065 178C151.598 178 150.465 178.45 149.665 179.35C148.865 180.25 148.465 181.533 148.465 183.2V188.55C148.465 190.217 148.865 191.5 149.665 192.4C150.465 193.3 151.598 193.75 153.065 193.75ZM171.645 178.5H167.945V172.75H171.645V169.65C171.645 167.117 172.311 165.217 173.645 163.95C174.978 162.65 176.928 162 179.495 162H184.295V167.75H179.045V172.75H184.295V178.5H179.045V199H171.645V178.5ZM200.627 199V164.1H224.377V170.85H208.227V178H222.077V184.7H208.227V192.25H224.377V199H200.627ZM228.048 199L236.698 185.65L228.148 172.75H236.548L241.448 181H241.648L246.398 172.75H254.198L245.498 185.9L254.248 199H245.848L240.798 190.45H240.598L235.748 199H228.048ZM258.577 172.75H265.977V177.15H266.227C266.594 175.683 267.427 174.483 268.727 173.55C270.06 172.617 271.577 172.15 273.277 172.15C276.61 172.15 279.127 173.317 280.827 175.65C282.527 177.983 283.377 181.383 283.377 185.85C283.377 190.317 282.527 193.733 280.827 196.1C279.127 198.433 276.61 199.6 273.277 199.6C272.41 199.6 271.594 199.467 270.827 199.2C270.06 198.967 269.36 198.633 268.727 198.2C268.127 197.733 267.61 197.2 267.177 196.6C266.744 195.967 266.427 195.3 266.227 194.6H265.977V209H258.577V172.75ZM270.827 193.6C272.227 193.6 273.377 193.117 274.277 192.15C275.21 191.15 275.677 189.817 275.677 188.15V183.6C275.677 181.933 275.21 180.617 274.277 179.65C273.377 178.65 272.227 178.15 270.827 178.15C269.427 178.15 268.26 178.5 267.327 179.2C266.427 179.867 265.977 180.8 265.977 182V189.75C265.977 190.95 266.427 191.9 267.327 192.6C268.26 193.267 269.427 193.6 270.827 193.6ZM299.947 199.6C297.947 199.6 296.164 199.283 294.597 198.65C293.03 197.983 291.697 197.067 290.597 195.9C289.53 194.7 288.714 193.25 288.147 191.55C287.614 189.85 287.347 187.95 287.347 185.85C287.347 183.783 287.614 181.917 288.147 180.25C288.68 178.55 289.464 177.1 290.497 175.9C291.564 174.7 292.864 173.783 294.397 173.15C295.93 172.483 297.68 172.15 299.647 172.15C301.814 172.15 303.664 172.517 305.197 173.25C306.764 173.983 308.03 174.967 308.997 176.2C309.997 177.433 310.714 178.867 311.147 180.5C311.614 182.1 311.847 183.783 311.847 185.55V187.75H294.997V188.15C294.997 189.883 295.464 191.267 296.397 192.3C297.33 193.3 298.797 193.8 300.797 193.8C302.33 193.8 303.58 193.5 304.547 192.9C305.514 192.267 306.414 191.517 307.247 190.65L310.947 195.25C309.78 196.617 308.247 197.683 306.347 198.45C304.48 199.217 302.347 199.6 299.947 199.6ZM299.797 177.6C298.297 177.6 297.114 178.1 296.247 179.1C295.414 180.067 294.997 181.367 294.997 183V183.4H304.197V182.95C304.197 181.35 303.83 180.067 303.097 179.1C302.397 178.1 301.297 177.6 299.797 177.6ZM317.073 199V172.75H324.473V178.45H324.723C324.856 177.717 325.09 177.017 325.423 176.35C325.756 175.65 326.19 175.033 326.723 174.5C327.29 173.967 327.956 173.55 328.723 173.25C329.49 172.917 330.39 172.75 331.423 172.75H332.723V179.65H330.873C328.706 179.65 327.09 179.933 326.023 180.5C324.99 181.067 324.473 182.117 324.473 183.65V199H317.073ZM346.683 199C344.117 199 342.167 198.35 340.833 197.05C339.533 195.75 338.883 193.85 338.883 191.35V178.5H335.183V172.75H337.033C338.033 172.75 338.717 172.517 339.083 172.05C339.45 171.55 339.633 170.85 339.633 169.95V165.65H346.283V172.75H351.483V178.5H346.283V193.25H351.083V199H346.683ZM365.524 199.6C362.99 199.6 360.857 199.2 359.124 198.4C357.39 197.567 355.84 196.4 354.474 194.9L358.824 190.5C359.757 191.533 360.79 192.35 361.924 192.95C363.057 193.55 364.34 193.85 365.774 193.85C367.24 193.85 368.257 193.633 368.824 193.2C369.39 192.733 369.674 192.117 369.674 191.35C369.674 190.117 368.79 189.383 367.024 189.15L364.174 188.8C358.274 188.067 355.324 185.367 355.324 180.7C355.324 179.433 355.557 178.283 356.024 177.25C356.524 176.183 357.207 175.283 358.074 174.55C358.974 173.783 360.04 173.2 361.274 172.8C362.54 172.367 363.957 172.15 365.524 172.15C366.89 172.15 368.09 172.25 369.124 172.45C370.19 172.617 371.124 172.883 371.924 173.25C372.757 173.583 373.507 174.017 374.174 174.55C374.874 175.05 375.557 175.617 376.224 176.25L371.974 180.6C371.14 179.767 370.19 179.117 369.124 178.65C368.09 178.15 367.024 177.9 365.924 177.9C364.657 177.9 363.757 178.1 363.224 178.5C362.69 178.9 362.424 179.433 362.424 180.1C362.424 180.8 362.607 181.35 362.974 181.75C363.374 182.117 364.107 182.383 365.174 182.55L368.124 182.95C373.89 183.717 376.774 186.35 376.774 190.85C376.774 192.117 376.507 193.283 375.974 194.35C375.44 195.417 374.674 196.35 373.674 197.15C372.707 197.917 371.524 198.517 370.124 198.95C368.757 199.383 367.224 199.6 365.524 199.6Z" fill="#0000AD"/>
</svg>
