<svg width="37" height="37" viewBox="0 0 37 37" fill="none" xmlns="http://www.w3.org/2000/svg">
<path d="M26.5144 9.11792H31.7572H37C37 17.6527 37 26.1874 37 34.7221C33.5048 34.7221 30.0096 34.7221 26.5144 34.7221C26.5144 26.1874 26.5144 17.6527 26.5144 9.11792Z" fill="#5C5C5C"/>
<path d="M2.17993 0C13.7866 0 25.3933 0 37 0C37 3.10018 37 6.20037 37 9.30056C25.3933 9.30056 13.7866 9.30056 2.17993 9.30056C2.17993 6.20037 2.17993 3.10018 2.17993 0Z" fill="#5C5C5C"/>
<path d="M14.3503 21.8889C9.92031 21.8889 5.49031 21.8889 1.0603 21.8889C1.0603 18.284 1.0603 14.6791 1.0603 11.0742C8.94105 11.0742 16.8218 11.0742 24.7025 11.0742C24.7025 19.307 24.7025 27.5398 24.7025 35.7726C21.2518 35.7726 17.8011 35.7726 14.3503 35.7726C14.3503 31.1447 14.3503 26.5168 14.3503 21.8889Z" fill="#5C5C5C"/>
<path d="M0.0073798 23.7206C4.64837 23.7224 8.35862 23.6944 12.6102 23.7009C12.6037 28.134 12.5972 32.567 12.5905 37C8.39368 36.9935 4.19684 36.9869 0 36.9804C0.0110966 32.5605 0.00879746 28.1407 0.00733188 23.7209L0.0073798 23.7206Z" fill="#5C5C5C"/>
</svg>
