<svg width="376" height="211" viewBox="0 0 376 211" fill="none" xmlns="http://www.w3.org/2000/svg">
<path d="M8.35 35L0.45 0.0999993H7.95L11.25 16.85L13.1 26.55H13.25L15.45 16.85L19.3 0.0999993H27.6L31.5 16.85L33.65 26.55H33.8L35.65 16.85L39 0.0999993H46.2L38.1 35H29.45L25.05 16.1L23.35 8.45H23.2L21.45 16.1L17.05 35H8.35ZM60.7633 35.6C58.7633 35.6 56.9799 35.2833 55.4133 34.65C53.8466 33.9833 52.5133 33.0667 51.4133 31.9C50.3466 30.7 49.5299 29.25 48.9633 27.55C48.4299 25.85 48.1633 23.95 48.1633 21.85C48.1633 19.7833 48.4299 17.9167 48.9633 16.25C49.4966 14.55 50.2799 13.1 51.3133 11.9C52.3799 10.7 53.6799 9.78333 55.2133 9.15C56.7466 8.48333 58.4966 8.15 60.4633 8.15C62.6299 8.15 64.4799 8.51667 66.0133 9.25C67.5799 9.98333 68.8466 10.9667 69.8133 12.2C70.8133 13.4333 71.5299 14.8667 71.9633 16.5C72.4299 18.1 72.6633 19.7833 72.6633 21.55V23.75H55.8133V24.15C55.8133 25.8833 56.2799 27.2667 57.2133 28.3C58.1466 29.3 59.6133 29.8 61.6133 29.8C63.1466 29.8 64.3966 29.5 65.3633 28.9C66.3299 28.2667 67.2299 27.5167 68.0633 26.65L71.7633 31.25C70.5966 32.6167 69.0633 33.6833 67.1633 34.45C65.2966 35.2167 63.1633 35.6 60.7633 35.6ZM60.6133 13.6C59.1133 13.6 57.9299 14.1 57.0633 15.1C56.2299 16.0667 55.8133 17.3667 55.8133 19V19.4H65.0133V18.95C65.0133 17.35 64.6466 16.0667 63.9133 15.1C63.2133 14.1 62.1133 13.6 60.6133 13.6ZM109.106 35C107.773 35 106.656 34.5833 105.756 33.75C104.889 32.9167 104.339 31.8 104.106 30.4H103.806C103.406 32.1 102.523 33.4 101.156 34.3C99.7892 35.1667 98.1059 35.6 96.1059 35.6C93.4725 35.6 91.4559 34.9 90.0559 33.5C88.6559 32.1 87.9559 30.25 87.9559 27.95C87.9559 25.1833 88.9559 23.1333 90.9559 21.8C92.9892 20.4333 95.7392 19.75 99.2059 19.75H103.356V18.1C103.356 16.8333 103.023 15.8333 102.356 15.1C101.689 14.3333 100.573 13.95 99.0059 13.95C97.5392 13.95 96.3725 14.2667 95.5059 14.9C94.6392 15.5333 93.9225 16.25 93.3559 17.05L88.9559 13.15C90.0225 11.5833 91.3559 10.3667 92.9559 9.5C94.5892 8.6 96.7892 8.15 99.5559 8.15C103.289 8.15 106.089 8.96667 107.956 10.6C109.823 12.2333 110.756 14.6167 110.756 17.75V29.25H113.206V35H109.106ZM98.8559 30.45C100.089 30.45 101.139 30.1833 102.006 29.65C102.906 29.1167 103.356 28.25 103.356 27.05V23.95H99.7559C96.8559 23.95 95.4059 24.9333 95.4059 26.9V27.65C95.4059 28.6167 95.7059 29.3333 96.3059 29.8C96.9059 30.2333 97.7559 30.45 98.8559 30.45ZM118.173 35V8.75H125.573V14.45H125.823C125.956 13.7167 126.189 13.0167 126.523 12.35C126.856 11.65 127.289 11.0333 127.823 10.5C128.389 9.96667 129.056 9.55 129.823 9.25C130.589 8.91666 131.489 8.75 132.523 8.75H133.823V15.65H131.973C129.806 15.65 128.189 15.9333 127.123 16.5C126.089 17.0667 125.573 18.1167 125.573 19.65V35H118.173ZM149.093 35.6C147.093 35.6 145.31 35.2833 143.743 34.65C142.177 33.9833 140.843 33.0667 139.743 31.9C138.677 30.7 137.86 29.25 137.293 27.55C136.76 25.85 136.493 23.95 136.493 21.85C136.493 19.7833 136.76 17.9167 137.293 16.25C137.827 14.55 138.61 13.1 139.643 11.9C140.71 10.7 142.01 9.78333 143.543 9.15C145.077 8.48333 146.827 8.15 148.793 8.15C150.96 8.15 152.81 8.51667 154.343 9.25C155.91 9.98333 157.177 10.9667 158.143 12.2C159.143 13.4333 159.86 14.8667 160.293 16.5C160.76 18.1 160.993 19.7833 160.993 21.55V23.75H144.143V24.15C144.143 25.8833 144.61 27.2667 145.543 28.3C146.477 29.3 147.943 29.8 149.943 29.8C151.477 29.8 152.727 29.5 153.693 28.9C154.66 28.2667 155.56 27.5167 156.393 26.65L160.093 31.25C158.927 32.6167 157.393 33.6833 155.493 34.45C153.627 35.2167 151.493 35.6 149.093 35.6ZM148.943 13.6C147.443 13.6 146.26 14.1 145.393 15.1C144.56 16.0667 144.143 17.3667 144.143 19V19.4H153.343V18.95C153.343 17.35 152.977 16.0667 152.243 15.1C151.543 14.1 150.443 13.6 148.943 13.6ZM197.436 35C196.103 35 194.986 34.5833 194.086 33.75C193.219 32.9167 192.669 31.8 192.436 30.4H192.136C191.736 32.1 190.853 33.4 189.486 34.3C188.119 35.1667 186.436 35.6 184.436 35.6C181.803 35.6 179.786 34.9 178.386 33.5C176.986 32.1 176.286 30.25 176.286 27.95C176.286 25.1833 177.286 23.1333 179.286 21.8C181.319 20.4333 184.069 19.75 187.536 19.75H191.686V18.1C191.686 16.8333 191.353 15.8333 190.686 15.1C190.019 14.3333 188.903 13.95 187.336 13.95C185.869 13.95 184.703 14.2667 183.836 14.9C182.969 15.5333 182.253 16.25 181.686 17.05L177.286 13.15C178.353 11.5833 179.686 10.3667 181.286 9.5C182.919 8.6 185.119 8.15 187.886 8.15C191.619 8.15 194.419 8.96667 196.286 10.6C198.153 12.2333 199.086 14.6167 199.086 17.75V29.25H201.536V35H197.436ZM187.186 30.45C188.419 30.45 189.469 30.1833 190.336 29.65C191.236 29.1167 191.686 28.25 191.686 27.05V23.95H188.086C185.186 23.95 183.736 24.9333 183.736 26.9V27.65C183.736 28.6167 184.036 29.3333 184.636 29.8C185.236 30.2333 186.086 30.45 187.186 30.45ZM6.15 115.95C4.65 115.95 3.55 115.617 2.85 114.95C2.18333 114.25 1.85 113.367 1.85 112.3V111.2C1.85 110.133 2.18333 109.267 2.85 108.6C3.55 107.9 4.65 107.55 6.15 107.55C7.65 107.55 8.73333 107.9 9.4 108.6C10.1 109.267 10.45 110.133 10.45 111.2V112.3C10.45 113.367 10.1 114.25 9.4 114.95C8.73333 115.617 7.65 115.95 6.15 115.95ZM2.45 118.75H9.85V145H2.45V118.75ZM16.7566 145V118.75H24.1566V123.2H24.4566C24.9233 121.833 25.74 120.65 26.9066 119.65C28.0733 118.65 29.69 118.15 31.7566 118.15C34.4566 118.15 36.49 119.05 37.8566 120.85C39.2566 122.65 39.9566 125.217 39.9566 128.55V145H32.5566V129.15C32.5566 127.45 32.29 126.2 31.7566 125.4C31.2233 124.567 30.2733 124.15 28.9066 124.15C28.3066 124.15 27.7233 124.233 27.1566 124.4C26.59 124.533 26.0733 124.767 25.6066 125.1C25.1733 125.433 24.8233 125.85 24.5566 126.35C24.29 126.817 24.1566 127.367 24.1566 128V145H16.7566ZM58.3582 145V118.75H65.7582V123.2H66.0582C66.5249 121.8 67.3249 120.617 68.4582 119.65C69.5915 118.65 71.1415 118.15 73.1082 118.15C74.9082 118.15 76.4415 118.6 77.7082 119.5C78.9749 120.4 79.8915 121.717 80.4582 123.45H80.6082C80.8415 122.717 81.1915 122.033 81.6582 121.4C82.1582 120.733 82.7582 120.167 83.4582 119.7C84.1582 119.233 84.9415 118.867 85.8082 118.6C86.6749 118.3 87.6082 118.15 88.6082 118.15C91.1415 118.15 93.0749 119.05 94.4082 120.85C95.7749 122.65 96.4582 125.217 96.4582 128.55V145H89.0582V129.15C89.0582 125.817 87.8582 124.15 85.4582 124.15C84.3582 124.15 83.3582 124.467 82.4582 125.1C81.5582 125.733 81.1082 126.7 81.1082 128V145H73.7082V129.15C73.7082 125.817 72.5082 124.15 70.1082 124.15C69.5749 124.15 69.0415 124.233 68.5082 124.4C68.0082 124.533 67.5415 124.767 67.1082 125.1C66.7082 125.433 66.3749 125.85 66.1082 126.35C65.8749 126.817 65.7582 127.367 65.7582 128V145H58.3582ZM113.986 145.6C111.986 145.6 110.203 145.283 108.636 144.65C107.069 143.983 105.736 143.067 104.636 141.9C103.569 140.7 102.753 139.25 102.186 137.55C101.653 135.85 101.386 133.95 101.386 131.85C101.386 129.783 101.653 127.917 102.186 126.25C102.719 124.55 103.503 123.1 104.536 121.9C105.603 120.7 106.903 119.783 108.436 119.15C109.969 118.483 111.719 118.15 113.686 118.15C115.853 118.15 117.703 118.517 119.236 119.25C120.803 119.983 122.069 120.967 123.036 122.2C124.036 123.433 124.753 124.867 125.186 126.5C125.653 128.1 125.886 129.783 125.886 131.55V133.75H109.036V134.15C109.036 135.883 109.503 137.267 110.436 138.3C111.369 139.3 112.836 139.8 114.836 139.8C116.369 139.8 117.619 139.5 118.586 138.9C119.553 138.267 120.453 137.517 121.286 136.65L124.986 141.25C123.819 142.617 122.286 143.683 120.386 144.45C118.519 145.217 116.386 145.6 113.986 145.6ZM113.836 123.6C112.336 123.6 111.153 124.1 110.286 125.1C109.453 126.067 109.036 127.367 109.036 129V129.4H118.236V128.95C118.236 127.35 117.869 126.067 117.136 125.1C116.436 124.1 115.336 123.6 113.836 123.6ZM131.112 118.75H138.512V123.15H138.762C139.129 121.683 139.962 120.483 141.262 119.55C142.595 118.617 144.112 118.15 145.812 118.15C149.145 118.15 151.662 119.317 153.362 121.65C155.062 123.983 155.912 127.383 155.912 131.85C155.912 136.317 155.062 139.733 153.362 142.1C151.662 144.433 149.145 145.6 145.812 145.6C144.945 145.6 144.129 145.467 143.362 145.2C142.595 144.967 141.895 144.633 141.262 144.2C140.662 143.733 140.145 143.2 139.712 142.6C139.279 141.967 138.962 141.3 138.762 140.6H138.512V155H131.112V118.75ZM143.362 139.6C144.762 139.6 145.912 139.117 146.812 138.15C147.745 137.15 148.212 135.817 148.212 134.15V129.6C148.212 127.933 147.745 126.617 146.812 125.65C145.912 124.65 144.762 124.15 143.362 124.15C141.962 124.15 140.795 124.5 139.862 125.2C138.962 125.867 138.512 126.8 138.512 128V135.75C138.512 136.95 138.962 137.9 139.862 138.6C140.795 139.267 141.962 139.6 143.362 139.6ZM13.4 200.6C11.4 200.6 9.61667 200.283 8.05 199.65C6.48333 198.983 5.15 198.067 4.05 196.9C2.98333 195.7 2.16667 194.25 1.6 192.55C1.06667 190.85 0.8 188.95 0.8 186.85C0.8 184.783 1.06667 182.917 1.6 181.25C2.13333 179.55 2.91667 178.1 3.95 176.9C5.01667 175.7 6.31667 174.783 7.85 174.15C9.38333 173.483 11.1333 173.15 13.1 173.15C15.2667 173.15 17.1167 173.517 18.65 174.25C20.2167 174.983 21.4833 175.967 22.45 177.2C23.45 178.433 24.1667 179.867 24.6 181.5C25.0667 183.1 25.3 184.783 25.3 186.55V188.75H8.45V189.15C8.45 190.883 8.91667 192.267 9.85 193.3C10.7833 194.3 12.25 194.8 14.25 194.8C15.7833 194.8 17.0333 194.5 18 193.9C18.9667 193.267 19.8667 192.517 20.7 191.65L24.4 196.25C23.2333 197.617 21.7 198.683 19.8 199.45C17.9333 200.217 15.8 200.6 13.4 200.6ZM13.25 178.6C11.75 178.6 10.5667 179.1 9.7 180.1C8.86667 181.067 8.45 182.367 8.45 184V184.4H17.65V183.95C17.65 182.35 17.2833 181.067 16.55 180.1C15.85 179.1 14.75 178.6 13.25 178.6ZM30.5262 200V173.75H37.9262V178.2H38.2262C38.6928 176.833 39.5095 175.65 40.6762 174.65C41.8428 173.65 43.4595 173.15 45.5262 173.15C48.2262 173.15 50.2595 174.05 51.6262 175.85C53.0262 177.65 53.7262 180.217 53.7262 183.55V200H46.3262V184.15C46.3262 182.45 46.0595 181.2 45.5262 180.4C44.9928 179.567 44.0428 179.15 42.6762 179.15C42.0762 179.15 41.4928 179.233 40.9262 179.4C40.3595 179.533 39.8428 179.767 39.3762 180.1C38.9428 180.433 38.5928 180.85 38.3262 181.35C38.0595 181.817 37.9262 182.367 37.9262 183V200H30.5262ZM84.6113 201.9C84.6113 203.3 84.3613 204.533 83.8613 205.6C83.3947 206.667 82.6113 207.567 81.5113 208.3C80.4113 209.067 78.9447 209.633 77.1113 210C75.3113 210.4 73.078 210.6 70.4113 210.6C68.1447 210.6 66.2113 210.45 64.6113 210.15C63.0447 209.883 61.7613 209.483 60.7613 208.95C59.7947 208.45 59.078 207.817 58.6113 207.05C58.178 206.317 57.9613 205.467 57.9613 204.5C57.9613 203.033 58.3947 201.883 59.2613 201.05C60.128 200.217 61.328 199.7 62.8613 199.5V198.95C61.5947 198.717 60.6447 198.183 60.0113 197.35C59.378 196.483 59.0613 195.483 59.0613 194.35C59.0613 193.65 59.1947 193.05 59.4613 192.55C59.7613 192.017 60.128 191.567 60.5613 191.2C61.028 190.8 61.5613 190.483 62.1613 190.25C62.7613 190.017 63.3613 189.833 63.9613 189.7V189.5C62.3613 188.767 61.178 187.767 60.4113 186.5C59.6447 185.2 59.2613 183.7 59.2613 182C59.2613 179.333 60.178 177.2 62.0113 175.6C63.878 173.967 66.7113 173.15 70.5113 173.15C72.2447 173.15 73.728 173.317 74.9613 173.65V172.65C74.9613 171.25 75.2947 170.25 75.9613 169.65C76.6613 169.017 77.6447 168.7 78.9113 168.7H83.0613V174.2H77.2613V174.5C78.7947 175.233 79.928 176.25 80.6613 177.55C81.3947 178.817 81.7613 180.3 81.7613 182C81.7613 184.633 80.828 186.75 78.9613 188.35C77.128 189.917 74.3113 190.7 70.5113 190.7C68.8113 190.7 67.2613 190.517 65.8613 190.15C65.0947 190.65 64.7113 191.35 64.7113 192.25C64.7113 192.883 64.9447 193.383 65.4113 193.75C65.9113 194.083 66.728 194.25 67.8613 194.25H75.4613C78.6613 194.25 80.978 194.917 82.4113 196.25C83.878 197.583 84.6113 199.467 84.6113 201.9ZM77.6613 202.9C77.6613 202.133 77.3613 201.55 76.7613 201.15C76.1613 200.75 75.1113 200.55 73.6113 200.55H64.6113C64.278 200.883 64.028 201.25 63.8613 201.65C63.728 202.083 63.6613 202.5 63.6613 202.9C63.6613 203.867 64.078 204.567 64.9113 205C65.7447 205.467 67.1613 205.7 69.1613 205.7H72.1613C74.1613 205.7 75.578 205.467 76.4113 205C77.2447 204.567 77.6613 203.867 77.6613 202.9ZM70.5113 185.85C71.978 185.85 73.0613 185.55 73.7613 184.95C74.4947 184.317 74.8613 183.417 74.8613 182.25V181.65C74.8613 180.483 74.4947 179.6 73.7613 179C73.0613 178.367 71.978 178.05 70.5113 178.05C69.0447 178.05 67.9447 178.367 67.2113 179C66.5113 179.6 66.1613 180.483 66.1613 181.65V182.25C66.1613 183.417 66.5113 184.317 67.2113 184.95C67.9447 185.55 69.0447 185.85 70.5113 185.85ZM91.5992 170.95C90.0992 170.95 88.9992 170.617 88.2992 169.95C87.6326 169.25 87.2992 168.367 87.2992 167.3V166.2C87.2992 165.133 87.6326 164.267 88.2992 163.6C88.9992 162.9 90.0992 162.55 91.5992 162.55C93.0992 162.55 94.1826 162.9 94.8492 163.6C95.5492 164.267 95.8992 165.133 95.8992 166.2V167.3C95.8992 168.367 95.5492 169.25 94.8492 169.95C94.1826 170.617 93.0992 170.95 91.5992 170.95ZM87.8992 173.75H95.2992V200H87.8992V173.75ZM102.206 200V173.75H109.606V178.2H109.906C110.373 176.833 111.189 175.65 112.356 174.65C113.523 173.65 115.139 173.15 117.206 173.15C119.906 173.15 121.939 174.05 123.306 175.85C124.706 177.65 125.406 180.217 125.406 183.55V200H118.006V184.15C118.006 182.45 117.739 181.2 117.206 180.4C116.673 179.567 115.723 179.15 114.356 179.15C113.756 179.15 113.173 179.233 112.606 179.4C112.039 179.533 111.523 179.767 111.056 180.1C110.623 180.433 110.273 180.85 110.006 181.35C109.739 181.817 109.606 182.367 109.606 183V200H102.206ZM142.941 200.6C140.941 200.6 139.158 200.283 137.591 199.65C136.024 198.983 134.691 198.067 133.591 196.9C132.524 195.7 131.708 194.25 131.141 192.55C130.608 190.85 130.341 188.95 130.341 186.85C130.341 184.783 130.608 182.917 131.141 181.25C131.674 179.55 132.458 178.1 133.491 176.9C134.558 175.7 135.858 174.783 137.391 174.15C138.924 173.483 140.674 173.15 142.641 173.15C144.808 173.15 146.658 173.517 148.191 174.25C149.758 174.983 151.024 175.967 151.991 177.2C152.991 178.433 153.708 179.867 154.141 181.5C154.608 183.1 154.841 184.783 154.841 186.55V188.75H137.991V189.15C137.991 190.883 138.458 192.267 139.391 193.3C140.324 194.3 141.791 194.8 143.791 194.8C145.324 194.8 146.574 194.5 147.541 193.9C148.508 193.267 149.408 192.517 150.241 191.65L153.941 196.25C152.774 197.617 151.241 198.683 149.341 199.45C147.474 200.217 145.341 200.6 142.941 200.6ZM142.791 178.6C141.291 178.6 140.108 179.1 139.241 180.1C138.408 181.067 137.991 182.367 137.991 184V184.4H147.191V183.95C147.191 182.35 146.824 181.067 146.091 180.1C145.391 179.1 144.291 178.6 142.791 178.6ZM171.017 200.6C169.017 200.6 167.234 200.283 165.667 199.65C164.101 198.983 162.767 198.067 161.667 196.9C160.601 195.7 159.784 194.25 159.217 192.55C158.684 190.85 158.417 188.95 158.417 186.85C158.417 184.783 158.684 182.917 159.217 181.25C159.751 179.55 160.534 178.1 161.567 176.9C162.634 175.7 163.934 174.783 165.467 174.15C167.001 173.483 168.751 173.15 170.717 173.15C172.884 173.15 174.734 173.517 176.267 174.25C177.834 174.983 179.101 175.967 180.067 177.2C181.067 178.433 181.784 179.867 182.217 181.5C182.684 183.1 182.917 184.783 182.917 186.55V188.75H166.067V189.15C166.067 190.883 166.534 192.267 167.467 193.3C168.401 194.3 169.867 194.8 171.867 194.8C173.401 194.8 174.651 194.5 175.617 193.9C176.584 193.267 177.484 192.517 178.317 191.65L182.017 196.25C180.851 197.617 179.317 198.683 177.417 199.45C175.551 200.217 173.417 200.6 171.017 200.6ZM170.867 178.6C169.367 178.6 168.184 179.1 167.317 180.1C166.484 181.067 166.067 182.367 166.067 184V184.4H175.267V183.95C175.267 182.35 174.901 181.067 174.167 180.1C173.467 179.1 172.367 178.6 170.867 178.6ZM188.143 200V173.75H195.543V179.45H195.793C195.927 178.717 196.16 178.017 196.493 177.35C196.827 176.65 197.26 176.033 197.793 175.5C198.36 174.967 199.027 174.55 199.793 174.25C200.56 173.917 201.46 173.75 202.493 173.75H203.793V180.65H201.943C199.777 180.65 198.16 180.933 197.093 181.5C196.06 182.067 195.543 183.117 195.543 184.65V200H188.143ZM212.058 170.95C210.558 170.95 209.458 170.617 208.758 169.95C208.092 169.25 207.758 168.367 207.758 167.3V166.2C207.758 165.133 208.092 164.267 208.758 163.6C209.458 162.9 210.558 162.55 212.058 162.55C213.558 162.55 214.642 162.9 215.308 163.6C216.008 164.267 216.358 165.133 216.358 166.2V167.3C216.358 168.367 216.008 169.25 215.308 169.95C214.642 170.617 213.558 170.95 212.058 170.95ZM208.358 173.75H215.758V200H208.358V173.75ZM222.665 200V173.75H230.065V178.2H230.365C230.832 176.833 231.648 175.65 232.815 174.65C233.982 173.65 235.598 173.15 237.665 173.15C240.365 173.15 242.398 174.05 243.765 175.85C245.165 177.65 245.865 180.217 245.865 183.55V200H238.465V184.15C238.465 182.45 238.198 181.2 237.665 180.4C237.132 179.567 236.182 179.15 234.815 179.15C234.215 179.15 233.632 179.233 233.065 179.4C232.498 179.533 231.982 179.767 231.515 180.1C231.082 180.433 230.732 180.85 230.465 181.35C230.198 181.817 230.065 182.367 230.065 183V200H222.665ZM276.75 201.9C276.75 203.3 276.5 204.533 276 205.6C275.533 206.667 274.75 207.567 273.65 208.3C272.55 209.067 271.083 209.633 269.25 210C267.45 210.4 265.217 210.6 262.55 210.6C260.283 210.6 258.35 210.45 256.75 210.15C255.183 209.883 253.9 209.483 252.9 208.95C251.933 208.45 251.217 207.817 250.75 207.05C250.317 206.317 250.1 205.467 250.1 204.5C250.1 203.033 250.533 201.883 251.4 201.05C252.267 200.217 253.467 199.7 255 199.5V198.95C253.733 198.717 252.783 198.183 252.15 197.35C251.517 196.483 251.2 195.483 251.2 194.35C251.2 193.65 251.333 193.05 251.6 192.55C251.9 192.017 252.267 191.567 252.7 191.2C253.167 190.8 253.7 190.483 254.3 190.25C254.9 190.017 255.5 189.833 256.1 189.7V189.5C254.5 188.767 253.317 187.767 252.55 186.5C251.783 185.2 251.4 183.7 251.4 182C251.4 179.333 252.317 177.2 254.15 175.6C256.017 173.967 258.85 173.15 262.65 173.15C264.383 173.15 265.867 173.317 267.1 173.65V172.65C267.1 171.25 267.433 170.25 268.1 169.65C268.8 169.017 269.783 168.7 271.05 168.7H275.2V174.2H269.4V174.5C270.933 175.233 272.067 176.25 272.8 177.55C273.533 178.817 273.9 180.3 273.9 182C273.9 184.633 272.967 186.75 271.1 188.35C269.267 189.917 266.45 190.7 262.65 190.7C260.95 190.7 259.4 190.517 258 190.15C257.233 190.65 256.85 191.35 256.85 192.25C256.85 192.883 257.083 193.383 257.55 193.75C258.05 194.083 258.867 194.25 260 194.25H267.6C270.8 194.25 273.117 194.917 274.55 196.25C276.017 197.583 276.75 199.467 276.75 201.9ZM269.8 202.9C269.8 202.133 269.5 201.55 268.9 201.15C268.3 200.75 267.25 200.55 265.75 200.55H256.75C256.417 200.883 256.167 201.25 256 201.65C255.867 202.083 255.8 202.5 255.8 202.9C255.8 203.867 256.217 204.567 257.05 205C257.883 205.467 259.3 205.7 261.3 205.7H264.3C266.3 205.7 267.717 205.467 268.55 205C269.383 204.567 269.8 203.867 269.8 202.9ZM262.65 185.85C264.117 185.85 265.2 185.55 265.9 184.95C266.633 184.317 267 183.417 267 182.25V181.65C267 180.483 266.633 179.6 265.9 179C265.2 178.367 264.117 178.05 262.65 178.05C261.183 178.05 260.083 178.367 259.35 179C258.65 179.6 258.3 180.483 258.3 181.65V182.25C258.3 183.417 258.65 184.317 259.35 184.95C260.083 185.55 261.183 185.85 262.65 185.85ZM284.631 200.55C283.131 200.55 282.014 200.183 281.281 199.45C280.581 198.683 280.231 197.717 280.231 196.55V195.55C280.231 194.383 280.581 193.433 281.281 192.7C282.014 191.933 283.131 191.55 284.631 191.55C286.131 191.55 287.231 191.933 287.931 192.7C288.664 193.433 289.031 194.383 289.031 195.55V196.55C289.031 197.717 288.664 198.683 287.931 199.45C287.231 200.183 286.131 200.55 284.631 200.55Z" fill="black"/>
<path d="M17.4 61.85V90H9.8V61.85H0.35V55.1H26.85V61.85H17.4ZM39.3277 90.6C37.3277 90.6 35.5444 90.2833 33.9777 89.65C32.4111 88.9833 31.0777 88.0667 29.9777 86.9C28.9111 85.7 28.0944 84.25 27.5277 82.55C26.9944 80.85 26.7277 78.95 26.7277 76.85C26.7277 74.7833 26.9944 72.9167 27.5277 71.25C28.0611 69.55 28.8444 68.1 29.8777 66.9C30.9444 65.7 32.2444 64.7833 33.7777 64.15C35.3111 63.4833 37.0611 63.15 39.0277 63.15C41.1944 63.15 43.0444 63.5167 44.5777 64.25C46.1444 64.9833 47.4111 65.9667 48.3777 67.2C49.3777 68.4333 50.0944 69.8667 50.5277 71.5C50.9944 73.1 51.2277 74.7833 51.2277 76.55V78.75H34.3777V79.15C34.3777 80.8833 34.8444 82.2667 35.7777 83.3C36.7111 84.3 38.1777 84.8 40.1777 84.8C41.7111 84.8 42.9611 84.5 43.9277 83.9C44.8944 83.2667 45.7944 82.5167 46.6277 81.65L50.3277 86.25C49.1611 87.6167 47.6277 88.6833 45.7277 89.45C43.8611 90.2167 41.7277 90.6 39.3277 90.6ZM39.1777 68.6C37.6777 68.6 36.4944 69.1 35.6277 70.1C34.7944 71.0667 34.3777 72.3667 34.3777 74V74.4H43.5777V73.95C43.5777 72.35 43.2111 71.0667 42.4777 70.1C41.7777 69.1 40.6777 68.6 39.1777 68.6ZM75.8539 90C74.5206 90 73.4039 89.5833 72.5039 88.75C71.6372 87.9167 71.0872 86.8 70.8539 85.4H70.5539C70.1539 87.1 69.2706 88.4 67.9039 89.3C66.5372 90.1667 64.8539 90.6 62.8539 90.6C60.2206 90.6 58.2039 89.9 56.8039 88.5C55.4039 87.1 54.7039 85.25 54.7039 82.95C54.7039 80.1833 55.7039 78.1333 57.7039 76.8C59.7372 75.4333 62.4872 74.75 65.9539 74.75H70.1039V73.1C70.1039 71.8333 69.7706 70.8333 69.1039 70.1C68.4372 69.3333 67.3206 68.95 65.7539 68.95C64.2872 68.95 63.1206 69.2667 62.2539 69.9C61.3872 70.5333 60.6706 71.25 60.1039 72.05L55.7039 68.15C56.7706 66.5833 58.1039 65.3667 59.7039 64.5C61.3372 63.6 63.5372 63.15 66.3039 63.15C70.0372 63.15 72.8372 63.9667 74.7039 65.6C76.5706 67.2333 77.5039 69.6167 77.5039 72.75V84.25H79.9539V90H75.8539ZM65.6039 85.45C66.8372 85.45 67.8872 85.1833 68.7539 84.65C69.6539 84.1167 70.1039 83.25 70.1039 82.05V78.95H66.5039C63.6039 78.95 62.1539 79.9333 62.1539 81.9V82.65C62.1539 83.6167 62.4539 84.3333 63.0539 84.8C63.6539 85.2333 64.5039 85.45 65.6039 85.45ZM84.9207 90V63.75H92.3207V68.2H92.6207C93.0874 66.8 93.8874 65.6167 95.0207 64.65C96.154 63.65 97.704 63.15 99.6707 63.15C101.471 63.15 103.004 63.6 104.271 64.5C105.537 65.4 106.454 66.7167 107.021 68.45H107.171C107.404 67.7167 107.754 67.0333 108.221 66.4C108.721 65.7333 109.321 65.1667 110.021 64.7C110.721 64.2333 111.504 63.8667 112.371 63.6C113.237 63.3 114.171 63.15 115.171 63.15C117.704 63.15 119.637 64.05 120.971 65.85C122.337 67.65 123.021 70.2167 123.021 73.55V90H115.621V74.15C115.621 70.8167 114.421 69.15 112.021 69.15C110.921 69.15 109.921 69.4667 109.021 70.1C108.121 70.7333 107.671 71.7 107.671 73V90H100.271V74.15C100.271 70.8167 99.0707 69.15 96.6707 69.15C96.1374 69.15 95.604 69.2333 95.0707 69.4C94.5707 69.5333 94.104 69.7667 93.6707 70.1C93.2707 70.4333 92.9374 70.85 92.6707 71.35C92.4374 71.8167 92.3207 72.3667 92.3207 73V90H84.9207ZM152.065 90.6C150.132 90.6 148.398 90.2833 146.865 89.65C145.365 89.0167 144.082 88.1 143.015 86.9C141.982 85.7 141.182 84.25 140.615 82.55C140.048 80.85 139.765 78.95 139.765 76.85C139.765 74.75 140.048 72.85 140.615 71.15C141.182 69.45 141.982 68.0167 143.015 66.85C144.082 65.65 145.365 64.7333 146.865 64.1C148.398 63.4667 150.132 63.15 152.065 63.15C153.998 63.15 155.715 63.4667 157.215 64.1C158.748 64.7333 160.032 65.65 161.065 66.85C162.132 68.0167 162.948 69.45 163.515 71.15C164.082 72.85 164.365 74.75 164.365 76.85C164.365 78.95 164.082 80.85 163.515 82.55C162.948 84.25 162.132 85.7 161.065 86.9C160.032 88.1 158.748 89.0167 157.215 89.65C155.715 90.2833 153.998 90.6 152.065 90.6ZM152.065 84.75C153.532 84.75 154.665 84.3 155.465 83.4C156.265 82.5 156.665 81.2167 156.665 79.55V74.2C156.665 72.5333 156.265 71.25 155.465 70.35C154.665 69.45 153.532 69 152.065 69C150.598 69 149.465 69.45 148.665 70.35C147.865 71.25 147.465 72.5333 147.465 74.2V79.55C147.465 81.2167 147.865 82.5 148.665 83.4C149.465 84.3 150.598 84.75 152.065 84.75ZM170.645 69.5H166.945V63.75H170.645V60.65C170.645 58.1167 171.311 56.2167 172.645 54.95C173.978 53.65 175.928 53 178.495 53H183.295V58.75H178.045V63.75H183.295V69.5H178.045V90H170.645V69.5ZM199.627 90V55.1H223.377V61.85H207.227V69H221.077V75.7H207.227V83.25H223.377V90H199.627ZM227.048 90L235.698 76.65L227.148 63.75H235.548L240.448 72H240.648L245.398 63.75H253.198L244.498 76.9L253.248 90H244.848L239.798 81.45H239.598L234.748 90H227.048ZM257.577 63.75H264.977V68.15H265.227C265.594 66.6833 266.427 65.4833 267.727 64.55C269.06 63.6167 270.577 63.15 272.277 63.15C275.61 63.15 278.127 64.3167 279.827 66.65C281.527 68.9833 282.377 72.3833 282.377 76.85C282.377 81.3167 281.527 84.7333 279.827 87.1C278.127 89.4333 275.61 90.6 272.277 90.6C271.41 90.6 270.594 90.4667 269.827 90.2C269.06 89.9667 268.36 89.6333 267.727 89.2C267.127 88.7333 266.61 88.2 266.177 87.6C265.744 86.9667 265.427 86.3 265.227 85.6H264.977V100H257.577V63.75ZM269.827 84.6C271.227 84.6 272.377 84.1167 273.277 83.15C274.21 82.15 274.677 80.8167 274.677 79.15V74.6C274.677 72.9333 274.21 71.6167 273.277 70.65C272.377 69.65 271.227 69.15 269.827 69.15C268.427 69.15 267.26 69.5 266.327 70.2C265.427 70.8667 264.977 71.8 264.977 73V80.75C264.977 81.95 265.427 82.9 266.327 83.6C267.26 84.2667 268.427 84.6 269.827 84.6ZM298.947 90.6C296.947 90.6 295.164 90.2833 293.597 89.65C292.03 88.9833 290.697 88.0667 289.597 86.9C288.53 85.7 287.714 84.25 287.147 82.55C286.614 80.85 286.347 78.95 286.347 76.85C286.347 74.7833 286.614 72.9167 287.147 71.25C287.68 69.55 288.464 68.1 289.497 66.9C290.564 65.7 291.864 64.7833 293.397 64.15C294.93 63.4833 296.68 63.15 298.647 63.15C300.814 63.15 302.664 63.5167 304.197 64.25C305.764 64.9833 307.03 65.9667 307.997 67.2C308.997 68.4333 309.714 69.8667 310.147 71.5C310.614 73.1 310.847 74.7833 310.847 76.55V78.75H293.997V79.15C293.997 80.8833 294.464 82.2667 295.397 83.3C296.33 84.3 297.797 84.8 299.797 84.8C301.33 84.8 302.58 84.5 303.547 83.9C304.514 83.2667 305.414 82.5167 306.247 81.65L309.947 86.25C308.78 87.6167 307.247 88.6833 305.347 89.45C303.48 90.2167 301.347 90.6 298.947 90.6ZM298.797 68.6C297.297 68.6 296.114 69.1 295.247 70.1C294.414 71.0667 293.997 72.3667 293.997 74V74.4H303.197V73.95C303.197 72.35 302.83 71.0667 302.097 70.1C301.397 69.1 300.297 68.6 298.797 68.6ZM316.073 90V63.75H323.473V69.45H323.723C323.856 68.7167 324.09 68.0167 324.423 67.35C324.756 66.65 325.19 66.0333 325.723 65.5C326.29 64.9667 326.956 64.55 327.723 64.25C328.49 63.9167 329.39 63.75 330.423 63.75H331.723V70.65H329.873C327.706 70.65 326.09 70.9333 325.023 71.5C323.99 72.0667 323.473 73.1167 323.473 74.65V90H316.073ZM345.683 90C343.117 90 341.167 89.35 339.833 88.05C338.533 86.75 337.883 84.85 337.883 82.35V69.5H334.183V63.75H336.033C337.033 63.75 337.717 63.5167 338.083 63.05C338.45 62.55 338.633 61.85 338.633 60.95V56.65H345.283V63.75H350.483V69.5H345.283V84.25H350.083V90H345.683ZM364.524 90.6C361.99 90.6 359.857 90.2 358.124 89.4C356.39 88.5667 354.84 87.4 353.474 85.9L357.824 81.5C358.757 82.5333 359.79 83.35 360.924 83.95C362.057 84.55 363.34 84.85 364.774 84.85C366.24 84.85 367.257 84.6333 367.824 84.2C368.39 83.7333 368.674 83.1167 368.674 82.35C368.674 81.1167 367.79 80.3833 366.024 80.15L363.174 79.8C357.274 79.0667 354.324 76.3667 354.324 71.7C354.324 70.4333 354.557 69.2833 355.024 68.25C355.524 67.1833 356.207 66.2833 357.074 65.55C357.974 64.7833 359.04 64.2 360.274 63.8C361.54 63.3667 362.957 63.15 364.524 63.15C365.89 63.15 367.09 63.25 368.124 63.45C369.19 63.6167 370.124 63.8833 370.924 64.25C371.757 64.5833 372.507 65.0167 373.174 65.55C373.874 66.05 374.557 66.6167 375.224 67.25L370.974 71.6C370.14 70.7667 369.19 70.1167 368.124 69.65C367.09 69.15 366.024 68.9 364.924 68.9C363.657 68.9 362.757 69.1 362.224 69.5C361.69 69.9 361.424 70.4333 361.424 71.1C361.424 71.8 361.607 72.35 361.974 72.75C362.374 73.1167 363.107 73.3833 364.174 73.55L367.124 73.95C372.89 74.7167 375.774 77.35 375.774 81.85C375.774 83.1167 375.507 84.2833 374.974 85.35C374.44 86.4167 373.674 87.35 372.674 88.15C371.707 88.9167 370.524 89.5167 369.124 89.95C367.757 90.3833 366.224 90.6 364.524 90.6Z" fill="#0000AD"/>
</svg>
