<svg width="125" height="11" viewBox="0 0 125 11" fill="none" xmlns="http://www.w3.org/2000/svg">
<path d="M5.544 10.168C4.83467 10.168 4.18133 10.0513 3.584 9.818C2.98667 9.58467 2.47333 9.24867 2.044 8.81C1.61467 8.37133 1.27867 7.844 1.036 7.228C0.793333 6.60267 0.672 5.898 0.672 5.114C0.672 4.33 0.793333 3.63 1.036 3.014C1.27867 2.38867 1.61467 1.85667 2.044 1.418C2.47333 0.979333 2.98667 0.643333 3.584 0.409999C4.18133 0.176666 4.83467 0.0599995 5.544 0.0599995C6.25333 0.0599995 6.90667 0.176666 7.504 0.409999C8.10133 0.643333 8.61467 0.979333 9.044 1.418C9.47333 1.85667 9.80933 2.38867 10.052 3.014C10.2947 3.63 10.416 4.33 10.416 5.114C10.416 5.898 10.2947 6.60267 10.052 7.228C9.80933 7.844 9.47333 8.37133 9.044 8.81C8.61467 9.24867 8.10133 9.58467 7.504 9.818C6.90667 10.0513 6.25333 10.168 5.544 10.168ZM5.544 9.272C6.104 9.272 6.61733 9.17867 7.084 8.992C7.55067 8.796 7.952 8.53467 8.288 8.208C8.63333 7.88133 8.89933 7.494 9.086 7.046C9.282 6.598 9.38 6.11267 9.38 5.59V4.638C9.38 4.12467 9.282 3.644 9.086 3.196C8.89933 2.73867 8.63333 2.34667 8.288 2.02C7.952 1.69333 7.55067 1.43667 7.084 1.25C6.61733 1.054 6.104 0.956 5.544 0.956C4.984 0.956 4.47067 1.054 4.004 1.25C3.53733 1.43667 3.13133 1.69333 2.786 2.02C2.45 2.34667 2.184 2.73867 1.988 3.196C1.80133 3.644 1.708 4.12467 1.708 4.638V5.59C1.708 6.11267 1.80133 6.598 1.988 7.046C2.184 7.494 2.45 7.88133 2.786 8.208C3.13133 8.53467 3.53733 8.796 4.004 8.992C4.47067 9.17867 4.984 9.272 5.544 9.272ZM5.642 8.124C5.18467 8.124 4.774 8.054 4.41 7.914C4.05533 7.76467 3.752 7.55933 3.5 7.298C3.248 7.03667 3.05667 6.724 2.926 6.36C2.79533 5.98667 2.73 5.57133 2.73 5.114C2.73 4.65667 2.79533 4.246 2.926 3.882C3.05667 3.50867 3.248 3.19133 3.5 2.93C3.752 2.66867 4.05533 2.468 4.41 2.328C4.774 2.17867 5.18467 2.104 5.642 2.104C6.32333 2.104 6.86933 2.24867 7.28 2.538C7.69067 2.82733 7.98933 3.21 8.176 3.686L6.776 4.358C6.664 4.11533 6.524 3.91933 6.356 3.77C6.188 3.62067 5.95 3.546 5.642 3.546C5.334 3.546 5.09133 3.63933 4.914 3.826C4.73667 4.00333 4.648 4.246 4.648 4.554V5.674C4.648 5.982 4.73667 6.22933 4.914 6.416C5.09133 6.59333 5.334 6.682 5.642 6.682C5.95 6.682 6.202 6.60733 6.398 6.458C6.594 6.29933 6.75267 6.10333 6.874 5.87L8.288 6.528C8.18533 6.74267 8.05933 6.948 7.91 7.144C7.77 7.33067 7.59267 7.49867 7.378 7.648C7.16333 7.79733 6.91133 7.914 6.622 7.998C6.342 8.082 6.01533 8.124 5.642 8.124ZM18.6385 10.168C17.7798 10.168 17.0518 10.0233 16.4545 9.734C15.8572 9.43533 15.3485 9.05267 14.9285 8.586L16.3285 7.172C16.9912 7.91867 17.8078 8.292 18.7785 8.292C19.3012 8.292 19.6885 8.18467 19.9405 7.97C20.1925 7.75533 20.3185 7.47067 20.3185 7.116C20.3185 6.84533 20.2438 6.62133 20.0945 6.444C19.9452 6.25733 19.6418 6.13133 19.1845 6.066L18.2185 5.94C17.1825 5.80933 16.4218 5.49667 15.9365 5.002C15.4605 4.50733 15.2225 3.84933 15.2225 3.028C15.2225 2.58933 15.3065 2.188 15.4745 1.824C15.6425 1.46 15.8805 1.14733 16.1885 0.886C16.5058 0.624666 16.8885 0.424 17.3365 0.284C17.7938 0.134666 18.3118 0.0599995 18.8905 0.0599995C19.6278 0.0599995 20.2765 0.176666 20.8365 0.409999C21.3965 0.643333 21.8772 0.984 22.2785 1.432L20.8645 2.86C20.6312 2.58933 20.3465 2.37 20.0105 2.202C19.6838 2.02467 19.2685 1.936 18.7645 1.936C18.2885 1.936 17.9338 2.02 17.7005 2.188C17.4672 2.356 17.3505 2.58933 17.3505 2.888C17.3505 3.224 17.4392 3.46667 17.6165 3.616C17.8032 3.76533 18.1018 3.87267 18.5125 3.938L19.4785 4.092C20.4865 4.25067 21.2332 4.56333 21.7185 5.03C22.2038 5.48733 22.4465 6.14067 22.4465 6.99C22.4465 7.45667 22.3625 7.886 22.1945 8.278C22.0265 8.67 21.7792 9.006 21.4525 9.286C21.1352 9.566 20.7385 9.78533 20.2625 9.944C19.7865 10.0933 19.2452 10.168 18.6385 10.168ZM27.9567 2.118V10H25.8287V2.118H23.1827V0.228H30.6027V2.118H27.9567ZM34.1865 10H32.0585V0.228H36.6925C37.1405 0.228 37.5465 0.302666 37.9105 0.451999C38.2745 0.601333 38.5825 0.816 38.8345 1.096C39.0958 1.36667 39.2965 1.69333 39.4365 2.076C39.5765 2.45867 39.6465 2.88333 39.6465 3.35C39.6465 4.01267 39.4971 4.59133 39.1985 5.086C38.9091 5.58067 38.4658 5.94 37.8685 6.164L39.7865 10H37.4205L35.7125 6.416H34.1865V10ZM36.4265 4.624C36.7438 4.624 36.9911 4.54467 37.1685 4.386C37.3551 4.218 37.4485 3.97533 37.4485 3.658V3.042C37.4485 2.72467 37.3551 2.48667 37.1685 2.328C36.9911 2.16 36.7438 2.076 36.4265 2.076H34.1865V4.624H36.4265ZM45.2753 10.168C44.6313 10.168 44.0433 10.0607 43.5113 9.846C42.9793 9.63133 42.5267 9.314 42.1533 8.894C41.78 8.46467 41.4907 7.93733 41.2853 7.312C41.08 6.67733 40.9773 5.94467 40.9773 5.114C40.9773 4.28333 41.08 3.55533 41.2853 2.93C41.4907 2.29533 41.78 1.768 42.1533 1.348C42.5267 0.918666 42.9793 0.596666 43.5113 0.381999C44.0433 0.167333 44.6313 0.0599995 45.2753 0.0599995C45.9193 0.0599995 46.5073 0.167333 47.0393 0.381999C47.5713 0.596666 48.024 0.918666 48.3973 1.348C48.7707 1.768 49.06 2.29533 49.2653 2.93C49.4707 3.55533 49.5733 4.28333 49.5733 5.114C49.5733 5.94467 49.4707 6.67733 49.2653 7.312C49.06 7.93733 48.7707 8.46467 48.3973 8.894C48.024 9.314 47.5713 9.63133 47.0393 9.846C46.5073 10.0607 45.9193 10.168 45.2753 10.168ZM45.2753 8.278C45.9193 8.278 46.4187 8.068 46.7733 7.648C47.1373 7.228 47.3193 6.626 47.3193 5.842V4.386C47.3193 3.602 47.1373 3 46.7733 2.58C46.4187 2.16 45.9193 1.95 45.2753 1.95C44.6313 1.95 44.1273 2.16 43.7633 2.58C43.4087 3 43.2313 3.602 43.2313 4.386V5.842C43.2313 6.626 43.4087 7.228 43.7633 7.648C44.1273 8.068 44.6313 8.278 45.2753 8.278ZM53.0462 10V6.178L49.7002 0.228H52.0802L54.1802 4.12H54.2082L56.2242 0.228H58.5342L55.1882 6.164V10H53.0462ZM67.052 3.588H67.01L66.296 5.016L64.392 8.474L62.53 5.03L61.788 3.49H61.746V10H59.744V0.228H61.998L64.392 4.806H64.42L66.786 0.228H69.054V10H67.052V3.588ZM71.2147 10V0.228H77.8647V2.118H73.3427V4.12H77.2207V5.996H73.3427V8.11H77.8647V10H71.2147ZM79.7186 10V0.228H84.3386C84.796 0.228 85.2066 0.307333 85.5706 0.465999C85.9346 0.615333 86.2426 0.825333 86.4946 1.096C86.756 1.36667 86.9566 1.698 87.0966 2.09C87.2366 2.47267 87.3066 2.89267 87.3066 3.35C87.3066 3.81667 87.2366 4.24133 87.0966 4.624C86.9566 5.00667 86.756 5.33333 86.4946 5.604C86.2426 5.87467 85.9346 6.08933 85.5706 6.248C85.2066 6.39733 84.796 6.472 84.3386 6.472H81.8466V10H79.7186ZM81.8466 4.624H84.0866C84.404 4.624 84.6513 4.54467 84.8286 4.386C85.0153 4.218 85.1086 3.97533 85.1086 3.658V3.042C85.1086 2.72467 85.0153 2.48667 84.8286 2.328C84.6513 2.16 84.404 2.076 84.0866 2.076H81.8466V4.624ZM98.8507 10H91.9347V8.082L94.9447 5.506C95.2154 5.27267 95.4441 5.06267 95.6307 4.876C95.8174 4.68 95.9667 4.49333 96.0787 4.316C96.2001 4.12933 96.2841 3.94733 96.3307 3.77C96.3867 3.59267 96.4147 3.40133 96.4147 3.196V3C96.4147 2.81333 96.3774 2.65 96.3027 2.51C96.2281 2.37 96.1301 2.25333 96.0087 2.16C95.8874 2.06667 95.7474 1.99667 95.5887 1.95C95.4394 1.90333 95.2854 1.88 95.1267 1.88C94.8934 1.88 94.6881 1.91733 94.5107 1.992C94.3427 2.06667 94.1934 2.16933 94.0627 2.3C93.9414 2.42133 93.8387 2.566 93.7547 2.734C93.6707 2.89267 93.6054 3.06533 93.5587 3.252L91.7247 2.552C91.8367 2.216 91.9907 1.89867 92.1867 1.6C92.3827 1.292 92.6254 1.026 92.9147 0.802C93.2134 0.568666 93.5634 0.386666 93.9647 0.255999C94.3661 0.125333 94.8187 0.0599995 95.3227 0.0599995C95.8547 0.0599995 96.3261 0.134666 96.7367 0.284C97.1474 0.433333 97.4927 0.638666 97.7727 0.899999C98.0621 1.16133 98.2814 1.474 98.4307 1.838C98.5801 2.19267 98.6547 2.58 98.6547 3C98.6547 3.42 98.5847 3.80267 98.4447 4.148C98.3047 4.49333 98.1134 4.82 97.8707 5.128C97.6374 5.42667 97.3621 5.71133 97.0447 5.982C96.7274 6.25267 96.3961 6.528 96.0507 6.808L94.2307 8.236H98.8507V10ZM103.731 10.168C102.453 10.168 101.505 9.72467 100.889 8.838C100.273 7.95133 99.9653 6.71 99.9653 5.114C99.9653 3.518 100.273 2.27667 100.889 1.39C101.505 0.503333 102.453 0.0599995 103.731 0.0599995C105.01 0.0599995 105.957 0.503333 106.573 1.39C107.189 2.27667 107.497 3.518 107.497 5.114C107.497 6.71 107.189 7.95133 106.573 8.838C105.957 9.72467 105.01 10.168 103.731 10.168ZM103.731 8.39C104.291 8.39 104.679 8.18467 104.893 7.774C105.108 7.36333 105.215 6.78467 105.215 6.038V4.19C105.215 3.44333 105.108 2.86467 104.893 2.454C104.679 2.04333 104.291 1.838 103.731 1.838C103.171 1.838 102.784 2.04333 102.569 2.454C102.355 2.86467 102.247 3.44333 102.247 4.19V6.038C102.247 6.78467 102.355 7.36333 102.569 7.774C102.784 8.18467 103.171 8.39 103.731 8.39ZM115.64 10H108.724V8.082L111.734 5.506C112.004 5.27267 112.233 5.06267 112.42 4.876C112.606 4.68 112.756 4.49333 112.868 4.316C112.989 4.12933 113.073 3.94733 113.12 3.77C113.176 3.59267 113.204 3.40133 113.204 3.196V3C113.204 2.81333 113.166 2.65 113.092 2.51C113.017 2.37 112.919 2.25333 112.798 2.16C112.676 2.06667 112.536 1.99667 112.378 1.95C112.228 1.90333 112.074 1.88 111.916 1.88C111.682 1.88 111.477 1.91733 111.3 1.992C111.132 2.06667 110.982 2.16933 110.852 2.3C110.73 2.42133 110.628 2.566 110.544 2.734C110.46 2.89267 110.394 3.06533 110.348 3.252L108.514 2.552C108.626 2.216 108.78 1.89867 108.976 1.6C109.172 1.292 109.414 1.026 109.704 0.802C110.002 0.568666 110.352 0.386666 110.754 0.255999C111.155 0.125333 111.608 0.0599995 112.112 0.0599995C112.644 0.0599995 113.115 0.134666 113.526 0.284C113.936 0.433333 114.282 0.638666 114.562 0.899999C114.851 1.16133 115.07 1.474 115.22 1.838C115.369 2.19267 115.444 2.58 115.444 3C115.444 3.42 115.374 3.80267 115.234 4.148C115.094 4.49333 114.902 4.82 114.66 5.128C114.426 5.42667 114.151 5.71133 113.834 5.982C113.516 6.25267 113.185 6.528 112.84 6.808L111.02 8.236H115.64V10ZM117.636 10V8.306H120.268V1.754H120.142L118.154 4.358L116.81 3.308L119.148 0.228H122.368V8.306H124.44V10H117.636Z" fill="#5C5C5C"/>
</svg>
